<svg width="500" height="500" viewBox="0 0 500 500" fill="none" xmlns="http://www.w3.org/2000/svg">
<g clip-path="url(#clip0_1_2)">
<mask id="path-1-outside-1_1_2" maskUnits="userSpaceOnUse" x="57" y="130" width="394" height="298" fill="black">
<rect fill="white" x="57" y="130" width="394" height="298"/>
<path d="M67.09 322.954L192.76 251.8V248.968L67.09 177.814V147.724L219.31 235.87V264.19L67.09 352.336V322.954Z"/>
<path d="M270.502 417.826V391.63H440.422V417.826H270.502Z"/>
</mask>
<path d="M67.09 322.954L192.76 251.8V248.968L67.09 177.814V147.724L219.31 235.87V264.19L67.09 352.336V322.954Z" fill="#DC1C6D"/>
<path d="M270.502 417.826V391.63H440.422V417.826H270.502Z" fill="#F9F9F9"/>
<path d="M67.09 322.954L62.163 314.252L57.09 317.124V322.954H67.09ZM192.76 251.8L197.687 260.502L202.76 257.63V251.8H192.76ZM192.76 248.968H202.76V243.138L197.687 240.266L192.76 248.968ZM67.09 177.814H57.09V183.644L62.163 186.516L67.09 177.814ZM67.09 147.724L72.1012 139.07L57.09 130.378V147.724H67.09ZM219.31 235.87H229.31V230.105L224.321 227.216L219.31 235.87ZM219.31 264.19L224.321 272.844L229.31 269.955V264.19H219.31ZM67.09 352.336H57.09V369.682L72.1012 360.99L67.09 352.336ZM67.09 322.954L72.017 331.656L197.687 260.502L192.76 251.8L187.833 243.098L62.163 314.252L67.09 322.954ZM192.76 251.8H202.76V248.968H192.76H182.76V251.8H192.76ZM192.76 248.968L197.687 240.266L72.017 169.112L67.09 177.814L62.163 186.516L187.833 257.67L192.76 248.968ZM67.09 177.814H77.09V147.724H67.09H57.09V177.814H67.09ZM67.09 147.724L62.0788 156.378L214.299 244.524L219.31 235.87L224.321 227.216L72.1012 139.07L67.09 147.724ZM219.31 235.87H209.31V264.19H219.31H229.31V235.87H219.31ZM219.31 264.19L214.299 255.536L62.0788 343.682L67.09 352.336L72.1012 360.99L224.321 272.844L219.31 264.19ZM67.09 352.336H77.09V322.954H67.09H57.09V352.336H67.09ZM270.502 417.826H260.502V427.826H270.502V417.826ZM270.502 391.63V381.63H260.502V391.63H270.502ZM440.422 391.63H450.422V381.63H440.422V391.63ZM440.422 417.826V427.826H450.422V417.826H440.422ZM270.502 417.826H280.502V391.63H270.502H260.502V417.826H270.502ZM270.502 391.63V401.63H440.422V391.63V381.63H270.502V391.63ZM440.422 391.63H430.422V417.826H440.422H450.422V391.63H440.422ZM440.422 417.826V407.826H270.502V417.826V427.826H440.422V417.826Z" fill="black" mask="url(#path-1-outside-1_1_2)"/>
</g>
<defs>
<clipPath id="clip0_1_2">
<rect width="500" height="500" fill="white"/>
</clipPath>
</defs>
</svg>
